<svg version="1.1" xmlns="http://www.w3.org/2000/svg" xmlns:xlink="http://www.w3.org/1999/xlink" viewBox="0 0 212.6 58.8" width="213" height="59">
<polygon points="80.2,54.5 78.9,56.7 77.7,54.5 76.9,54.5 76.9,58.8 77.7,58.8 77.7,56 78.9,58.2 80.2,56 80.2,58.8 80.9,58.8 
	80.9,54.5 "/>
<rect x="81.8" y="54.5" width="0.7" height="4.3"/>
<path d="M90,54.5v3.6h-1.7v-3.6h-0.7v3.6c0,0.4,0.3,0.7,0.7,0.7l0,0H90c0.4,0,0.7-0.3,0.7-0.7c0,0,0,0,0,0v-3.6H90z"/>
<rect x="83.5" y="54.5" width="0.7" height="4.3"/>
<polygon points="86.7,54.5 85.8,54.5 84.6,56.7 84.6,56.7 85.8,58.8 86.7,58.8 85.4,56.7 "/>
<polygon points="68.4,54.5 68.4,57.6 66.2,54.5 65.5,54.5 65.5,58.8 66.2,58.8 66.2,55.8 68.4,58.8 69.1,58.8 69.1,54.5 "/>
<polygon points="47.9,54.5 47.9,56.3 46.2,56.3 46.2,54.5 45.5,54.5 45.5,58.8 46.2,58.8 46.2,57.1 47.9,57.1 47.9,58.8 48.6,58.8
	48.6,54.5 "/>
<polygon points="73.2,55.3 73.2,54.5 70.1,54.5 70.1,58.8 73.2,58.8 73.2,58.1 70.8,58.1 70.8,57.1 73.2,57.1 73.2,56.3 70.8,56.3
	70.8,55.3 "/>
<path d="M63.8,54.5v3.6h-1.7v-3.6h-0.7v3.6c0,0.4,0.3,0.7,0.7,0.7c0,0,0,0,0,0h1.7c0.4,0,0.7-0.3,0.7-0.7v-3.6H63.8z"/>
<path d="M58.2,56v-0.7h2.3v-0.7h-2.3c-0.4,0-0.7,0.3-0.7,0.7c0,0,0,0,0,0V56c0,0.3,0.2,0.6,0.5,0.7l2,0.7v0.7h-2.4v0.7h2.3
	c0.4,0,0.7-0.3,0.7-0.7c0,0,0,0,0,0v-0.7c0-0.3-0.2-0.6-0.5-0.7L58.2,56z"/>
<polygon points="56.5,54.5 53.3,54.5 53.3,55.3 54.5,55.3 54.5,58.8 55.3,58.8 55.3,55.3 56.5,55.3 "/>
<polygon points="51.8,54.5 51,54.5 49.4,58.8 50.2,58.8 51.4,55.6 52.6,58.8 53.3,58.8 "/>
<polygon points="97.8,54.5 96.5,56.7 95.2,54.5 94.5,54.5 94.5,58.8 95.2,58.8 95.2,56 96.5,58.2 97.8,56 97.8,58.8 98.5,58.8
	98.5,54.5 "/>
<rect x="108.1" y="54.5" width="0.7" height="4.3"/>
<path d="M104.8,58.1v-2.9h2.4v-0.7h-2.4c-0.4,0-0.7,0.3-0.7,0.7c0,0,0,0,0,0v3.6h3.1v-2.5h-1.6v0.7h0.8v1.1H104.8z"/>
<path d="M110.5,58.1v-2.9h2.4v-0.7h-2.4c-0.4,0-0.7,0.3-0.7,0.7c0,0,0,0,0,0v3.6h3.1v-0.7L110.5,58.1z"/>
<polygon points="119.2,58.1 119.2,54.5 118.5,54.5 118.5,58.8 121.7,58.8 121.7,58.1 "/>
<polygon points="101.6,54.5 100.9,54.5 99.3,58.8 100.1,58.8 101.2,55.6 102.4,58.8 103.2,58.8 "/>
<polygon points="116.1,54.5 115.3,54.5 113.8,58.8 114.6,58.8 115.7,55.6 116.9,58.8 117.7,58.8 "/>
<polygon points="175,54.5 175,57.6 172.9,54.5 172.1,54.5 172.1,58.8 172.9,58.8 172.9,55.8 175,58.8 175.7,58.8 175.7,54.5 "/>
<polygon points="179.5,54.5 179.5,57.6 177.4,54.5 176.7,54.5 176.7,58.8 177.4,58.8 177.4,55.8 179.5,58.8 180.2,58.8 180.2,54.5
	"/>
<polygon points="190.9,55.3 190.9,54.5 187.7,54.5 187.7,58.8 190.9,58.8 190.9,58.1 188.4,58.1 188.4,57.1 190.9,57.1 190.9,56.3
	188.4,56.3 188.4,55.3 "/>
<path d="M196.6,56v-0.7h2.4v-0.7h-2.3c-0.4,0-0.7,0.3-0.7,0.7c0,0,0,0,0,0V56c0,0.3,0.2,0.6,0.5,0.7l2,0.7v0.7H196v0.7h2.3
	c0.4,0,0.7-0.3,0.7-0.7c0,0,0,0,0,0v-0.7c0-0.3-0.2-0.6-0.5-0.7L196.6,56z"/>
<polygon points="169.7,54.5 169,54.5 167.4,58.8 168.2,58.8 169.4,55.6 170.5,58.8 171.3,58.8 "/>
<polygon points="202.2,54.5 201.4,54.5 199.9,58.8 200.6,58.8 201.8,55.6 203,58.8 203.8,58.8 "/>
<polygon points="184.4,58.8 185.2,58.8 186.8,54.5 186,54.5 184.8,57.8 183.6,54.5 182.9,54.5 "/>
<rect x="181.2" y="54.5" width="0.7" height="4.3"/>
<polygon points="194.9,54.5 191.8,54.5 191.8,54.5 191.8,54.5 191.8,58.8 192.5,58.8 192.5,55.3 194.2,55.3 194.2,56.1 193.1,56.6
	194.2,58.8 194.9,58.8 194.1,56.9 194.9,56.5 "/>
<polygon points="207.8,54.5 204.6,54.5 204.6,54.5 204.6,54.5 204.6,58.8 205.3,58.8 205.3,55.3 207,55.3 207,56.1 205.9,56.6
	207,58.8 207.8,58.8 206.9,56.9 207.8,56.5 "/>
<polygon points="212.6,54.5 211.8,54.5 210.6,56.5 209.5,54.5 208.7,54.5 210.3,57.3 210.3,58.8 211,58.8 211,57.3 "/>
<polygon points="128.6,54.5 127.4,56.7 126.1,54.5 125.4,54.5 125.4,58.8 126.1,58.8 126.1,56 127.4,58.2 128.6,56 128.6,58.8
	129.4,58.8 129.4,54.5 "/>
<rect x="130.3" y="54.5" width="0.7" height="4.3"/>
<rect x="140.7" y="54.5" width="0.7" height="4.3"/>
<polygon points="138.3,54.5 137.5,54.5 136,58.8 136.7,58.8 137.9,55.6 139.1,58.8 139.9,58.8 "/>
<polygon points="135.1,54.5 132,54.5 132,54.5 132,54.5 132,58.8 132.7,58.8 132.7,55.3 134.4,55.3 134.4,56.1 133.3,56.6
	134.3,58.8 135.1,58.8 134.2,56.9 135.1,56.5 "/>
<path d="M154.7,54.5H153c-0.4,0-0.7,0.3-0.7,0.7c0,0,0,0,0,0v2.9c0,0.4,0.3,0.7,0.7,0.7l0,0h1.7c0.4,0,0.7-0.3,0.7-0.7c0,0,0,0,0,0
	v-2.9C155.4,54.9,155.1,54.6,154.7,54.5z M154.7,58.1H153v-2.9h1.7L154.7,58.1z"/>
<polygon points="162.9,54.5 162.9,56.3 161.2,56.3 161.2,54.5 160.5,54.5 160.5,58.8 161.2,58.8 161.2,57.1 162.9,57.1 162.9,58.8
	163.6,58.8 163.6,54.5 "/>
<polygon points="159.6,54.5 156.4,54.5 156.4,55.3 157.6,55.3 157.6,58.8 158.3,58.8 158.3,55.3 159.6,55.3 "/>
<rect x="150.6" y="54.5" width="0.7" height="4.3"/>
<polygon points="146,57.8 145.1,58.2 145.1,57.2 144.4,56.3 145.5,56.1 146,55.2 146.6,56.1 147.6,56.3 146.9,57.2 147,58.2 "/>
<polygon points="141.4,7.2 141.4,13 137.1,13 137.1,51.1 148.7,51.1 148.7,7.2 "/>
<path d="M152.1,7.2v43.9h23.1v-4.3h5.8V7.2H152.1z M169.4,39.6h-5.8V22.5h5.8V39.6z"/>
<polygon points="208.3,36.6 208.3,32.3 203.4,32.3 203.4,26.5 197.6,26.5 197.6,51.1 203.4,51.1 203.4,38 206.8,38 206.8,51.1
	212.6,51.1 212.6,36.6 "/>
<polygon points="190.2,26.5 184.4,26.5 184.4,32.3 182.7,32.3 182.7,38 184.4,38 184.4,51.1 195.9,51.1 195.9,45.4 190.2,45.4
	190.2,38 195.9,38 195.9,32.3 190.2,32.3 "/>
<polygon points="69.1,36.6 45.5,36.6 45.5,36.6 45.5,43.8 45.5,43.8 69.1,43.8 69.1,43.8 "/>
<polygon points="69.1,26.5 45.5,26.5 45.5,35.2 69.1,35.2 69.1,35.2 "/>
<rect x="70.8" y="26.5" width="24.8" height="8.7"/>
<rect x="108.5" width="7.2" height="23.1"/>
<rect x="75.2" width="7.2" height="2.9"/>
<rect x="75.2" y="4.3" width="7.2" height="2.9"/>
<polygon points="102.4,5.8 102.4,0 84.2,0 84.2,7.2 87.9,7.2 87.9,23.1 95.2,23.1 95.2,7.2 101,7.2 101,23.1 106.8,23.1 106.8,5.8
	"/>
<rect x="59.4" width="14.4" height="7.2"/>
<polygon points="73.8,15.9 73.8,15.9 73.8,8.7 73.8,8.7 59.4,8.7 59.4,15.9 59.4,15.9 "/>
<path d="M82.5,8.7h-7.2v8.6H59.4v5.8h17.3v-4.3h5.8V8.7z"/>
<path d="M45.5,45.4v5.8h23.6v-5.8H45.5z"/>
<polygon points="124.3,7.2 124.3,0 117.1,0 117.1,23.1 127.9,23.1 127.9,18.8 133.7,18.8 133.7,7.2 "/>
<polygon points="0,0 0,13 5.8,13 5.8,17.3 41.8,17.3 41.8,23.1 51.9,23.1 51.9,18.8 57.7,18.8 57.7,0 "/>
<polygon points="70.8,36.6 70.8,43.8 86.9,43.8 86.9,51.1 92.7,51.1 92.7,47.7 95.6,47.7 95.6,36.6 "/>
<polygon points="38.9,23.1 17.3,23.1 17.3,30.3 25.5,30.3 25.5,35.2 33.7,35.2 33.7,38.6 41.8,38.6 41.8,26.5 38.9,26.5 "/>
<polygon points="105,26.5 105,36.6 97.2,36.6 97.2,45.4 107.2,45.4 107.2,51.1 112.8,51.1 112.8,36.6 115.7,36.6 115.7,26.5 "/>
<polygon points="126.4,43.4 121.9,45.1 122.2,40.3 119.2,36.6 123.8,35.3 126.4,31.3 129,35.3 133.7,36.6 130.6,40.3 130.9,45.1 "/>
</svg>